<?xml version="1.0" standalone="no"?>
<!DOCTYPE svg PUBLIC "-//W3C//DTD SVG 20010904//EN"
 "http://www.w3.org/TR/2001/REC-SVG-20010904/DTD/svg10.dtd">
<svg version="1.0" xmlns="http://www.w3.org/2000/svg"
 width="432.000000pt" height="238.000000pt" viewBox="0 0 432.000000 238.000000"
 preserveAspectRatio="xMidYMid meet">

<g transform="translate(0.000000,238.000000) scale(0.100000,-0.100000)"
fill="#000000" stroke="none">
<path d="M903 1358 c2 -149 9 -268 16 -289 18 -57 53 -102 101 -129 39 -22 57
-25 135 -25 73 0 98 4 130 22 110 59 134 137 135 436 l0 167 206 0 c161 0 204
-3 198 -12 -4 -7 -94 -142 -201 -300 -106 -158 -196 -294 -199 -303 -5 -13 29
-15 299 -15 l306 0 3 258 c3 236 5 260 23 291 31 53 67 74 134 79 80 6 138
-21 171 -80 18 -33 23 -57 24 -122 l1 -81 -82 -3 -83 -3 0 -29 0 -30 85 0 85
0 0 -140 0 -140 40 0 40 0 0 203 c-1 252 -11 337 -48 397 -49 81 -167 118
-289 90 -69 -15 -122 -61 -154 -133 -21 -48 -23 -70 -27 -269 l-4 -218 -204 0
-204 0 202 303 c112 166 204 308 206 315 3 9 -62 12 -302 12 l-305 0 -3 -257
c-3 -237 -5 -261 -23 -292 -33 -56 -67 -75 -143 -79 -83 -4 -134 22 -166 83
-19 37 -21 59 -24 293 l-3 252 -41 0 -40 0 5 -252z"/>
<path d="M2602 1524 c-2 -68 14 -94 61 -94 38 0 57 34 56 100 l-2 55 -6 -56
c-7 -63 -23 -89 -57 -89 -30 0 -38 14 -45 85 l-6 60 -1 -61z"/>
<path d="M2760 1570 c0 -5 18 -10 41 -10 l40 0 -33 -45 c-68 -94 -68 -85 -2
-83 l59 1 -48 6 -48 6 45 60 c25 33 46 63 46 68 0 4 -22 7 -50 7 -27 0 -50 -4
-50 -10z"/>
<path d="M2916 1508 c-18 -40 -31 -75 -29 -78 3 -3 9 3 14 13 14 24 87 24 106
0 13 -17 14 -16 8 5 -9 32 -55 132 -61 132 -3 0 -20 -33 -38 -72z m42 -26
c-17 -2 -32 -1 -34 1 -3 3 3 21 13 42 l18 37 16 -39 16 -38 -29 -3z"/>
<path d="M3057 1573 c-4 -3 -7 -37 -7 -75 l0 -68 39 0 c22 0 46 3 55 6 18 7
21 45 5 61 -8 8 -8 13 0 17 21 13 12 46 -15 56 -29 11 -68 13 -77 3z m88 -23
c11 -18 -15 -40 -46 -40 -24 0 -29 4 -29 25 0 22 4 25 34 25 19 0 38 -5 41
-10z m0 -80 c0 -22 -5 -25 -37 -28 -36 -3 -38 -2 -38 28 0 30 2 31 38 28 32
-3 37 -6 37 -28z"/>
<path d="M3203 1505 c0 -44 2 -61 4 -37 2 23 2 59 0 80 -2 20 -4 1 -4 -43z"/>
<path d="M3242 1508 l-2 -78 53 2 52 1 -45 6 -45 6 -6 70 -5 70 -2 -77z"/>
<path d="M3410 1570 c0 -5 9 -10 20 -10 18 0 20 -7 20 -65 0 -37 4 -65 10 -65
6 0 10 28 10 65 0 58 2 65 19 65 11 0 23 5 26 10 4 6 -15 10 -49 10 -31 0 -56
-4 -56 -10z"/>
<path d="M3540 1572 c0 -4 11 -23 25 -42 15 -20 25 -47 25 -67 0 -18 5 -33 10
-33 6 0 10 15 10 33 0 18 11 49 26 70 14 21 24 41 21 43 -3 3 -15 -11 -27 -30
-12 -20 -25 -36 -30 -36 -5 0 -18 16 -30 35 -21 35 -30 42 -30 27z"/>
<path d="M3363 1500 c0 -41 2 -58 4 -37 2 20 2 54 0 75 -2 20 -4 3 -4 -38z"/>
<path d="M2600 1245 l0 -75 29 0 c47 0 80 17 92 47 20 54 -25 103 -97 103 -23
0 -24 -3 -24 -75z m99 41 c37 -38 -1 -106 -60 -106 -29 0 -29 1 -29 58 0 32 3
62 7 66 11 11 65 -2 82 -18z"/>
<path d="M2760 1245 l0 -75 53 2 52 1 -45 6 c-40 5 -45 9 -48 33 -3 25 0 27
40 31 l43 4 -43 1 c-41 2 -43 3 -40 30 3 24 8 28 48 33 l45 6 -52 1 -53 2 0
-75z"/>
<path d="M2906 1304 c-27 -27 -17 -45 37 -67 62 -26 38 -73 -25 -49 -25 9 -28
9 -18 -4 15 -17 61 -19 78 -2 24 24 13 49 -27 65 -45 18 -57 36 -35 54 12 10
23 10 47 1 29 -10 30 -10 13 3 -26 19 -51 19 -70 -1z"/>
<path d="M3096 1299 c-70 -55 16 -169 88 -116 28 20 18 61 -16 65 -16 2 -28
-1 -28 -7 0 -6 12 -11 26 -11 18 0 25 -5 22 -16 -8 -43 -80 -43 -100 1 -24 54
25 110 77 87 14 -6 25 -8 25 -3 0 11 -25 21 -49 21 -10 0 -30 -9 -45 -21z"/>
<path d="M3242 1243 l1 -78 6 64 6 64 34 -47 c18 -26 35 -45 38 -42 5 4 -75
116 -83 116 -2 0 -3 -35 -2 -77z"/>
<path d="M3020 1240 c0 -40 4 -70 10 -70 6 0 10 30 10 70 0 40 -4 70 -10 70
-6 0 -10 -30 -10 -70z"/>
<path d="M3339 1255 c-1 -30 -2 -60 -3 -67 -1 -6 5 -13 12 -15 9 -4 12 14 12
66 0 84 -19 98 -21 16z"/>
<path d="M2612 1048 c-25 -25 -13 -48 33 -68 48 -21 54 -30 30 -50 -14 -12
-25 -11 -70 5 -20 7 -20 6 -1 -9 25 -20 60 -20 80 0 26 26 18 44 -29 64 -25
11 -45 26 -45 34 0 21 46 32 65 16 9 -7 15 -8 15 -2 0 22 -58 30 -78 10z"/>
<path d="M2743 1053 c26 -4 27 -6 27 -74 0 -44 4 -68 10 -64 6 3 10 35 10 70
0 62 1 64 28 68 15 2 -2 4 -38 4 -36 0 -53 -2 -37 -4z"/>
<path d="M2872 1004 c-2 -48 2 -65 16 -77 20 -18 49 -22 69 -9 28 18 45 123
23 137 -6 4 -10 -16 -10 -52 0 -60 -11 -83 -39 -83 -34 0 -46 20 -52 82 l-6
63 -1 -61z"/>
<path d="M3030 985 l0 -78 41 6 c52 7 79 31 79 72 0 41 -27 65 -79 72 l-41 6
0 -78z m74 53 c47 -21 46 -91 0 -108 -57 -22 -64 -16 -64 55 0 71 9 79 64 53z"/>
<path d="M3193 985 c0 -44 2 -61 4 -37 2 23 2 59 0 80 -2 20 -4 1 -4 -43z"/>
<path d="M3256 1039 c-36 -28 -36 -80 0 -108 43 -34 86 -26 110 20 38 75 -43
141 -110 88z m82 -5 c46 -32 17 -114 -40 -114 -24 0 -58 39 -58 66 0 26 36 64
60 64 8 0 26 -7 38 -16z"/>
</g>
</svg>
